<svg id="Layer_1" data-name="Layer 1" xmlns="http://www.w3.org/2000/svg" width="100" height="100" viewBox="0 0 240 240">
  <title>PDF</title>
  <g id="PDF">
    <path d="M42.83,206.45V33.55A6.13,6.13,0,0,1,49,27.4H160.15l37,37v142A6.13,6.13,0,0,1,191,212.6H49A6.2,6.2,0,0,1,42.83,206.45Z" style="fill: none;stroke: #005EB8;stroke-linecap: round;stroke-linejoin: round;stroke-width: 4px"/>
    <line x1="160.15" y1="27.4" x2="197.17" y2="64.42" style="fill: none;stroke: #005EB8;stroke-linecap: round;stroke-linejoin: round;stroke-width: 4px"/>
    <polyline points="197.17 64.42 160.15 64.42 160.15 27.4" style="fill: none;stroke: #005EB8;stroke-linecap: round;stroke-linejoin: round;stroke-width: 4px"/>
    <text transform="translate(78.5 190.01)" style="font-size: 42px;fill: #005EB8;font-family: ArialMT, Arial">PDF</text>
    <path id="Adobe_symbol" data-name="Adobe symbol" d="M120.77,59.82c-.82-3-3-4.63-4.63-4.36A6.63,6.63,0,0,0,111,59c-2.45,5.72,2.73,22.34,3.54,25.34-5.17,15.52-22.88,46.3-31.32,48.21-.27-1.91.82-7.9,12.26-15.26a10.2,10.2,0,0,0,1.63-1.9c-10.08,4.9-22.33,12.25-15,18a8.29,8.29,0,0,0,1.64.82c5.72,2.18,13.89-4.9,21.79-20.7a152.21,152.21,0,0,1,26.14-6.81c11.17,7.63,18.52,9,23.7,7.08a8.13,8.13,0,0,0,4.36-4.63c-4.09,5.18-13.62,1.64-21.52-3.27,7.08-.81,14.44-1.09,17.7-.27,4.09,1.36,3.82,3.27,3.82,3.54a6,6,0,0,0,0-4.36c-3.27-5.44-18.8-2.18-24.52-1.63-9-5.45-15-15-17.43-21.79,2.18-8.44,4.63-15,3-21.52m-2.45,22.34c-1.09-3.82-2.73-12.53-.28-15.53,5.18,2.72,2.18,9.26.28,15.53m9.26,19.34c-6.27,1.08-10.62,2.72-16.89,5.17a118.78,118.78,0,0,0,7.08-18.79,41.12,41.12,0,0,0,9.81,13.62" style="fill: #005EB8"/>
  </g>
</svg>
