<svg id="Layer_1" data-name="Layer 1" xmlns="http://www.w3.org/2000/svg" width="100" height="100" viewBox="0 0 240 240">
  <title>ICONS Sets_v4_FileTypes_4</title>
  <g id="PPT">
    <path d="M46.14,206.45V33.55a6.12,6.12,0,0,1,6.15-6.15H163.46l37,37v142a6.12,6.12,0,0,1-6.15,6.15h-142A6.2,6.2,0,0,1,46.14,206.45Z" style="fill: none;stroke: #005EB8;stroke-linecap: round;stroke-linejoin: round;stroke-width: 4px"/>
    <line x1="163.46" y1="27.4" x2="200.47" y2="64.42" style="fill: none;stroke: #005EB8;stroke-linecap: round;stroke-linejoin: round;stroke-width: 4px"/>
    <polyline points="200.47 64.42 163.46 64.42 163.46 27.4" style="fill: none;stroke: #005EB8;stroke-linecap: round;stroke-linejoin: round;stroke-width: 4px"/>
    <text transform="translate(83.34 190.01)" style="font-size: 42px;fill: #005EB8;font-family: ArialMT, Arial">PP<tspan x="56.03" y="0" style="letter-spacing: -0.01806640625em">T</tspan></text>
    <path d="M121.75,65.36a35,35,0,1,0,35.63,35H121.75Z" style="fill: none;stroke: #005EB8;stroke-miterlimit: 10;stroke-width: 4px"/>
    <path d="M132.24,66.22h-.4V90.36h24.53A24.13,24.13,0,0,0,132.24,66.22Z" style="fill: none;stroke: #005EB8;stroke-miterlimit: 10;stroke-width: 4px"/>
  </g>
</svg>
