<svg version="1.1" id="Layer_1" xmlns="http://www.w3.org/2000/svg" xmlns:xlink="http://www.w3.org/1999/xlink" x="0px" y="0px"
	 viewBox="0 0 240 240" style="enable-background:new 0 0 240 240;" xml:space="preserve" width="100" heigh="100">
<style type="text/css">
	.st0{fill:none;stroke:#005EB8;stroke-width:4;stroke-linecap:round;stroke-linejoin:round;}
</style>
<title>I-WritingForWeb-140x175</title>
<path class="st0" d="M37.3,39.6h165.2c5.2,0,9.4,4.2,9.4,9.4v143.1c0,5.2-4.2,9.4-9.4,9.4H37.3c-5.2,0-9.4-4.2-9.4-9.4V49
	C28.1,43.8,32.3,39.6,37.3,39.6z"/>
<line class="st0" x1="28.1" y1="72.1" x2="211.9" y2="72.1"/>
<line class="st0" x1="73.9" y1="201.6" x2="73.9" y2="73.1"/>
<line class="st0" x1="119.9" y1="201.6" x2="119.9" y2="73.1"/>
<line class="st0" x1="166" y1="201.6" x2="166" y2="73.1"/>
<line class="st0" x1="28.1" y1="104.3" x2="211.9" y2="104.3"/>
<line class="st0" x1="28.1" y1="136.9" x2="211.9" y2="136.9"/>
<line class="st0" x1="28.1" y1="169.1" x2="211.9" y2="169.1"/>
</svg>
